<svg width="100vw" height="auto" version="1.1" viewBox="0 0 131.58 33.32" xml:space="preserve" xmlns="http://www.w3.org/2000/svg"><g transform="translate(-67.323 -85.777)" display="none"><path d="m101.93 116.12-0.10092-1.0583h0.20542c0.11299 0 0.20544 0.47625 0.20544 1.0583s-0.047 1.0583-0.1045 1.0583-0.14993-0.47625-0.20544-1.0583zm1.1397 0.0661-0.036-1.1245h0.51255l-0.1673 0.436-0.16731 0.436 0.71526-0.13674 0.71527-0.13673-0.10123 0.29605-0.10122 0.29604-1.1012-0.1588-0.1164 0.60853-0.11639 0.60853zm2.1838 9e-3 0.34631-1.0012 0.77832-0.1528 0.30352 0.98898c0.39048 1.2723 0.20903 1.4871-0.2026 0.23986-0.37998-1.1513-0.7004-1.204-0.93123-0.15305-0.0955 0.43489-0.27873 0.85565-0.40715 0.93502l-0.23348 0.1443zm2.1898 0.80683c-0.25025-0.25025-0.2197-1.9403 0.0351-1.9403h0.21145l-0.21152 1.8118 1.5084 0.22558-0.6835 0.0396c-0.37593 0.0218-0.76289-0.0397-0.8599-0.13675zm1.7424-0.88194c-3e-3 -0.65484 0.0491-0.98227 0.11566-0.72761l0.121 0.46303h0.49037c0.2697 0 0.54153-0.14883 0.60408-0.33073 0.0625-0.1819 0.0774-0.10312 0.033 0.17506-0.0444 0.27819 0.0357 0.75444 0.1779 1.0583l0.25864 0.55253-0.43679-0.59531c-0.24023-0.32742-0.59257-0.59531-0.78298-0.59531h-0.34621l-0.22932 1.1906-5e-3 -1.1906zm2.122 0v-1.1906l0.11467 0.59532c0.0631 0.32742 0.0631 0.8632 0 1.1906l-0.11467 0.59531zm0.75924 0.0661-0.0375-1.1245h0.27026c0.14864 0 0.41648 0.32094 0.59521 0.71319l0.32495 0.7132 0.16724-0.77934 0.16723-0.77935 0.0313 1.1401 0.0313 1.1401-0.23013-0.14223c-0.12657-0.0782-0.39446-0.53173-0.59531-1.0078l-0.36518-0.86557-0.16089 1.0583-0.1609 1.0583zm2.1905 0.63622c-0.083-0.21619-0.1122-0.73056-0.065-1.143l0.0859-0.74996 1.1987-0.0704-1.0664 0.2395v1.8153h1.0583v-0.37483c0-0.20615-0.14883-0.43488-0.33073-0.50828l-0.33073-0.13345 0.96284-0.0418-0.0845 0.59532-0.0845 0.59531-1.193 0.1694-0.15084-0.39308zm4.2091-0.063c-0.0884-0.23046-0.41212-0.52057-0.7193-0.64469l-0.55851-0.22567 1.5118-0.0336-0.17627-0.46302-0.17628-0.46302 0.66635 0.66145-0.30511 0.30512-0.30512 0.30512 0.26151 0.48863c0.14383 0.26875 0.19405 0.48863 0.1116 0.48863-0.0824 0-0.22226-0.18855-0.31069-0.41901zm0.81794 0.063c-0.083-0.21619-0.10027-0.73056-0.0385-1.143l0.11238-0.74996 0.0396 0.99219 0.0397 0.99219h1.0583v-1.8133l-0.80413-0.24952 0.93642 0.0856v2.1094l-1.193 0.1694zm2.1167 0c-0.083-0.21619-0.10027-0.73056-0.0385-1.143l0.11238-0.74996 0.0792 1.9844h1.0264l0.11367-0.99219 0.11366-0.99219-0.0316 1.0583-0.0315 1.0583-1.193 0.1694zm2.4891-0.70236-0.10093-1.0583h0.20543c0.11298 0 0.20543 0.47625 0.20543 1.0583s-0.047 1.0583-0.1045 1.0583-0.14992-0.47625-0.20543-1.0583zm1.2801 0.88194c-0.097-0.097-0.17639-0.57326-0.17639-1.0583v-0.88194h0.51255l-0.14421 0.37582-0.14422 0.37582 0.61554 0.11731 0.61554 0.11732-1.1906 0.072v0.7586l0.7276 0.11022 0.72761 0.11023-0.68351 0.0396c-0.37593 0.0218-0.76288-0.0397-0.85989-0.13675zm2.4033-0.0141c0.78746-0.14451 0.75616-0.55521-0.0661-0.86785l-0.66146-0.25149 0.0614-0.93914 0.23236 0.876 1.3289 0.33354-0.086 0.45356-0.086 0.45357-1.3184 0.051 0.59531-0.10925zm4.3381-0.60326-0.0504-0.92604-0.47678 0.61985-0.47678 0.61984-0.46452-0.70895c-0.25549-0.38992-0.40513-0.76834-0.33253-0.84094s0.2753 0.13576 0.45044 0.46303l0.31845 0.59502 0.47865-0.63455c0.60937-0.80787 0.84269-0.57096 0.70916 0.72005l-0.10537 1.0187zm0.51322 0.66146c8e-3 -0.14552 0.11687-0.50271 0.24193-0.79375l0.22739-0.52917 0.0146 0.39688c8e-3 0.21828-0.10087 0.57547-0.24194 0.79375s-0.24994 0.27781-0.24193 0.13229zm2.4031-0.97461 0.0445-1.1421 0.20758 1.9844h1.0843l-0.21622-1.8521h0.45485l-0.0821 0.99218-0.0821 0.99219-1.4552 0.1674zm1.984 0.93051c-0.27227-0.27226-0.2085-1.6246 0.0852-1.8061l0.26155-0.16165-0.14949 0.38957-0.14949 0.38956 0.61554 0.11731 0.61554 0.11732-1.1906 0.072v0.7586l0.7276 0.11022 0.7276 0.11023-0.6835 0.0396c-0.37593 0.0218-0.76289-0.0397-0.8599-0.13675zm2.9986-0.0515v-0.22789l0.66146 0.12644c0.3638 0.0696 0.66146 0.1721 0.66146 0.2279s-0.29766 0.10144-0.66146 0.10144-0.66146-0.10255-0.66146-0.22789zm1.717-0.12742c0.0755-0.26818 0.20923-0.77419 0.29715-1.1245l0.15985-0.63687 0.86867 8e-3 -0.30359 0.19439c-0.16697 0.10691-0.49614 0.6111-0.73148 1.1204-0.23535 0.50933-0.36612 0.70662-0.2906 0.43845zm1.4501-0.18852c-0.16008-0.29911-0.24471-0.68287-0.18806-0.85279l0.10298-0.30896 0.29729 0.85279c0.33594 0.96369 0.2248 1.1255-0.21221 0.30896zm1.4177 0.35232 0.7484-0.11223-0.16877-0.44344-0.16876-0.44344 0.31013 0.30767 0.31012 0.30768-0.17777 0.28764-0.17777 0.28763-1.424-0.0792zm1.6877-0.77384c-0.26087-0.52379-0.42057-1.0061-0.35488-1.0718 0.0657-0.0657 0.20058 0.13629 0.29978 0.44882l0.18035 0.56824 0.33166-0.12727 0.33167-0.12727-0.12183 0.6373c-0.067 0.35052-0.13771 0.63437-0.15713 0.63079-0.0194-4e-3 -0.24874-0.43506-0.50962-0.95884zm-12.329-0.12238c-0.163-0.46759-0.25006-0.89646-0.19347-0.95305 0.0566-0.0566 0.23626 0.27968 0.39926 0.74726 0.163 0.46759 0.25007 0.89647 0.19347 0.95306-0.0566 0.0566-0.23625-0.27968-0.39926-0.74727zm6.056 5e-3c0-0.1319 0.23813-0.23981 0.52917-0.23981s0.52917 0.0456 0.52917 0.10143c0 0.0558-0.23813 0.1637-0.52917 0.23981l-0.52917 0.13838zm4.1029-0.23678-0.16165-0.26156 0.41061 0.15757c0.45837 0.17589 0.54224 0.36554 0.16165 0.36554-0.13693 0-0.32171-0.1177-0.41061-0.26155zm-64.477-5.6971c-0.82763-0.43957-1.5908-0.88528-1.696-0.99045l-0.19123-0.19123 3.392-9.3229 0.07495 2.9546c0.04122 1.625 0.04122 4.1684 0 5.6519l-0.07495 2.6973zm46.967 0.13123c-2.1033-0.42579-3.6132-1.5756-4.677-3.5619l-0.56871-1.0618-0.0822-6.9453-0.0822-6.9453h1.5782l0.0868 6.4162 0.0868 6.4161 0.57193 1.2375 0.57192 1.2376 2.2251 1.4725 3.3256 0.21176 0.95893-0.31648c1.2869-0.4247 2.432-1.4282 3.1399-2.7517l0.58371-1.0912 0.0832-6.4161 0.0832-6.4162h1.818v18.256h-1.8521v-2.4428l-1.0524 0.95081c-0.57884 0.52295-1.4457 1.1151-1.9264 1.316-1.1887 0.49668-3.5319 0.70543-4.8723 0.43408zm18.302 0.092c-1.6744-0.24797-2.7353-0.64116-3.7885-1.4041l-1.0919-0.79099-0.50406-0.99573c-0.27723-0.54766-0.58759-1.3827-0.68967-1.8556l-0.1856-0.8599h1.8104l0.30973 1.0338 0.30973 1.0338 0.91554 0.80386c1.127 0.98952 2.3953 1.3602 4.6342 1.3546l1.7198-4e-3 1.119-0.50798 1.119-0.50797 1.0971-1.7506-0.12376-1.0127-0.12377-1.0127-0.48482-0.53572c-0.78608-0.8686-1.6329-1.1856-5.0552-1.8922l-3.2415-0.6693-1.0955-0.61366-1.0955-0.61366-0.97866-1.8438v-1.1371c0-0.62541 0.1638-1.5291 0.364-2.0083l0.364-0.87118 0.98703-0.8136 0.98704-0.81359 2.3227-0.65032 4.1387 0.23959 1.1493 0.64187c0.63211 0.35303 1.4915 1.0678 1.9098 1.5883l0.76045 0.94639 0.15771 0.97184 0.15771 0.97183h-1.6006l-1.2468-2.4858-2.0888-1.0598-3.0888-0.22342-2.3573 0.90026-1.064 1.3527v1.04c0 0.57203 0.12924 1.2816 0.28721 1.5767l0.28721 0.53666 1.1685 0.51687c0.64266 0.28429 2.3829 0.74829 3.8672 1.0311l2.6988 0.51424 2.4059 1.1953 1.1914 1.798v3.123l-0.37174 0.71446c-0.53356 1.0255-1.4452 1.8036-2.8066 2.3954l-1.1873 0.51613-1.5875 0.12747c-0.87312 0.0701-1.9447 0.0746-2.3812 0.01zm-49.345-9.4785v-9.1281h1.8521v18.256h-1.8521zm5.2917-3.4396v-12.568h10.223l2.6096 0.77855 0.99987 0.82695c1.2274 1.0152 2.0236 2.5192 2.2225 4.1988l0.15044 1.2702-0.93409 2.8123-1.0973 1.0588-1.0973 1.0588 2.9969 1.4976 1.5215 2.1955 0.0927 2.0411 0.0927 2.0411-0.51388 1.1565c-0.74435 1.6752-1.7455 2.7418-3.3016 3.5172l-1.3687 0.68203h-12.596zm12.244 10.7 0.99942-0.27754 0.95822-0.84133c0.52702-0.46273 1.1191-1.2263 1.3157-1.6969l0.35746-0.85553v-2.6839l-0.52318-1.0255c-0.61518-1.2059-1.583-1.9555-3.0487-2.3615l-1.0583-0.29314-4.6964-2e-3 -4.6964-1e-3v10.319l9.3927-2e-3 0.99942-0.27754zm-0.57801-12.505 1.1661-0.61502 0.5731-0.84635c0.3152-0.4655 0.65082-1.3064 0.74583-1.8687l0.17272-1.0224-0.2837-1.0536c-0.38255-1.4207-1.2118-2.4126-2.5101-3.0022l-1.0791-0.49011-8.599-0.012v9.525h8.648zm-38.445 6.4932-3.8812-4.1583 5.3143-0.0718c2.9229-0.0395 5.37-0.0161 5.438 0.0519 0.11524 0.11524-2.3857 7.2569-2.8015 7.9998l-0.18842 0.33668zm-4.4421-7.7302v-2.9104l1.7198 0.0416 3.5822 4.0236-1.7016 1.7556h-3.6004zm5.574 1.6536c0.6289-0.69122 2.2514-2.4293 3.6056-3.8624l2.4621-2.6057v7.7249h-7.2111zm6.5969-3.119v-3.9062l2.5797 0.17082c1.4188 0.094 3.1675 0.17145 3.886 0.1722l1.3063 1e-3 -0.7771 0.81887c-0.42741 0.45038-2.1761 2.1307-3.886 3.734l-3.1089 2.9151zm-13.758-0.25448c0.34177-0.3638 0.71972-0.66146 0.83987-0.66146 0.12016 0 0.21846 0.29766 0.21846 0.66146v0.66146h-1.6797zm19.964-0.90489 1.0459-1.0795h0.47547c0.81894 0 0.51766 0.36629-1.0511 1.2779l-1.5161 0.88104zm7.5531-5.9743v-0.92604h1.8521v1.8521h-1.8521z" stroke-width=".26458"/></g><g transform="translate(-67.323 -85.777)"><path d="m79.536 108.4c-0.82763-0.43957-1.5908-0.88528-1.696-0.99045l-0.19122-0.19123 3.392-9.3229 0.075 2.9546c0.0412 1.625 0.0412 4.1684 0 5.6519l-0.075 2.6973zm-5.5625-8.0073-3.8812-4.1583 5.3143-0.0718c2.9229-0.0395 5.37-0.0161 5.438 0.0519 0.11523 0.11524-2.3857 7.2569-2.8015 7.9998l-0.18842 0.33668zm-4.4421-7.7302v-2.9104l1.7198 0.0416 3.5822 4.0236-0.85081 0.87782-0.85082 0.87782h-3.6004zm5.574 1.6536c0.6289-0.69122 2.2514-2.4293 3.6056-3.8624l2.4621-2.6057v7.7249h-7.2111zm6.5969-3.119v-3.9062l2.5797 0.17082c1.4188 0.094 3.1675 0.17145 3.886 0.1722l1.3063 1e-3 -0.7771 0.81887c-0.42741 0.45038-2.1761 2.1307-3.886 3.734l-3.1089 2.9151zm-13.758-0.25448c0.34177-0.3638 0.71972-0.66146 0.83987-0.66146 0.12016 0 0.21846 0.29766 0.21846 0.66146v0.66146h-1.6797zm19.964-0.90489 1.0459-1.0795h0.47547c0.81895 0 0.51767 0.36629-1.0511 1.2779l-1.5161 0.88104z" stroke-width=".26458"/><text x="92.407494" y="110.21533" fill="#000000" font-size="33.389px" stroke-width="2.7824" xml:space="preserve"><tspan x="92.407494" y="110.21533" stroke-width="2.7824">iBuses</tspan></text><text x="121.57293" y="119.04839" fill="#000000" font-size="3.175px" stroke-width=".26458" xml:space="preserve"><tspan x="121.57293" y="119.04839" stroke-width=".26458">TRACKING ROUTES MADE EASY</tspan></text></g></svg>
